<svg xmlns="http://www.w3.org/2000/svg" width="24.73" height="23.73" viewBox="0 0 24.73 23.73">
  <g id="Icon_ionic-md-chatbubbles" transform="translate(-3.375 -3.105)">
    <path id="Path_15"  d="M8.883,23.6a3.257,3.257,0,0,1-2.91-2.661V11.25H5.35a1.9,1.9,0,0,0-1.975,1.805V29.3l3.8-3.444H21.147a1.923,1.923,0,0,0,1.975-1.835V23.6Z" transform="translate(0 -2.468)" fill="#fff"/>
    <path id="Path_16"  d="M26.93,3.375H10.18a2.055,2.055,0,0,0-2.094,2V18.35a2.06,2.06,0,0,0,2.094,2.008H24.47L29.024,23.4V5.377A2.055,2.055,0,0,0,26.93,3.375Z" transform="translate(-0.918 -0.27)" fill="#fff"/>
  </g>
</svg>
