<svg xmlns="http://www.w3.org/2000/svg" width="18" height="15.749" viewBox="0 0 18 15.749">
  <path id="Icon_awesome-splotch" d="M16.6,8.012,14.246,7.2a2.017,2.017,0,0,1-1.341-1.346l-.562-2.125a2.355,2.355,0,0,0-3.866-.8L6.855,4.614a2.4,2.4,0,0,1-1.905.679L2.422,5.1C.592,4.952-.634,6.673.347,8.007L1.7,9.85a1.673,1.673,0,0,1,.163,1.766l-1,2c-.724,1.45.8,2.984,2.584,2.595l2.46-.537a2.492,2.492,0,0,1,2.006.412l1.91,1.435c1.382,1.039,3.552.266,3.672-1.309l.165-2.175a1.89,1.89,0,0,1,1.077-1.511l2.18-1.116a1.8,1.8,0,0,0-.315-3.4Z" transform="translate(0 -2.25)" fill="#3ace5c"/>
</svg>
